<svg xmlns="http://www.w3.org/2000/svg" width="82" height="135" fill="none" overflow="visible"><path d="M 25.613 92.203 C 25.418 91.729 24.925 91.06 24.268 89.783 C 23.929 89.113 23.662 88.207 23.149 87.218 C 22.799 86.548 22.234 85.94 21.865 85.209 C 21.505 84.518 21.433 83.664 21.063 82.942 C 20.704 82.232 20.283 81.552 19.944 80.841 C 19.584 80.109 19.153 79.429 18.835 78.739 C 18.475 77.977 18.198 77.225 17.91 76.545 C 17.551 75.7 17.16 74.99 16.965 74.371 C 16.75 73.712 16.554 72.899 16.338 72.002 C 16.154 71.261 15.845 70.488 15.671 69.643 C 15.507 68.86 15.517 68.016 15.352 67.212 C 15.198 66.409 14.849 65.636 14.705 64.843 C 14.551 64.008 14.726 63.143 14.593 62.37 C 14.439 61.485 14.048 60.712 13.925 60.001 C 13.74 58.858 13.832 57.992 13.771 57.591 C 13.956 57.24 14.326 56.509 14.911 55.592 C 15.291 54.994 15.692 54.304 16.195 53.635 C 16.667 53.027 17.058 52.296 17.612 51.75 C 18.187 51.183 18.865 50.719 19.502 50.328 C 20.2 49.895 20.95 49.555 21.7 49.483 C 22.532 49.401 23.303 49.442 23.991 49.473 C 24.853 49.504 25.634 49.504 26.281 49.627 C 27.329 49.833 27.955 50.256 28.356 50.431 C 28.715 51.811 28.551 51.832 28.736 53.243 C 28.931 54.655 28.921 54.655 29.116 56.066 C 29.311 57.477 29.486 57.457 29.629 58.868 C 29.516 58.847 29.373 58.837 29.301 58.827 C 28.335 58.703 27.431 58.744 26.61 58.94 C 25.706 59.156 24.853 59.527 24.186 60.125 C 23.405 60.825 22.861 61.824 22.501 62.978 C 22.501 62.999 22.347 62.978 22.347 63.009 C 22.326 63.081 22.522 63.205 22.512 63.277 C 22.265 64.194 22.111 65.203 22.132 66.337 C 22.142 67.13 22.193 67.933 22.399 68.716 C 22.596 69.494 22.871 70.25 23.22 70.972 C 23.559 71.673 24.083 72.28 24.566 72.95 C 25.018 73.578 25.469 74.227 26.034 74.825 C 26.568 75.392 27.092 75.999 27.719 76.525 C 28.315 77.019 29.023 77.4 29.711 77.853 C 30.359 78.286 30.965 78.832 31.673 79.224 C 32.362 79.595 33.152 79.79 33.902 80.12 C 34.529 80.398 35.125 80.882 35.844 81.15 C 36.513 81.401 37.187 81.638 37.867 81.861 C 37.918 82.345 38.134 83.066 38.123 84.004 C 38.123 84.694 37.98 85.456 37.857 86.218 C 37.744 86.96 37.744 87.763 37.456 88.443 C 37.158 89.144 36.593 89.7 36.039 90.195 C 35.309 90.844 34.477 91.235 33.687 91.606 C 32.824 92.018 31.982 92.368 31.109 92.523 C 30.174 92.677 29.249 92.678 28.356 92.626 C 27.39 92.564 26.476 92.43 25.644 92.234 Z M 50.531 83.509 C 51.404 83.715 52.164 83.993 52.842 84.148 C 54.249 84.477 55.163 84.539 55.194 84.549 C 55.225 84.549 55.195 84.725 55.225 84.735 C 55.277 84.755 55.4 84.611 55.451 84.642 C 55.502 84.673 55.41 84.879 55.451 84.91 C 55.492 84.941 55.513 84.972 55.543 85.013 C 55.574 85.054 55.749 84.992 55.78 85.044 C 55.801 85.085 55.739 85.178 55.749 85.229 C 55.77 85.281 55.975 85.312 55.975 85.363 C 55.975 85.394 55.811 85.425 55.811 85.456 C 55.811 85.487 55.677 85.497 55.667 85.528 C 55.667 85.559 55.78 85.59 55.77 85.621 C 55.77 85.652 55.718 85.652 55.708 85.682 C 55.687 85.734 55.811 85.858 55.78 85.899 C 55.76 85.94 55.574 85.889 55.543 85.92 C 55.513 85.961 55.574 86.095 55.533 86.136 C 55.492 86.167 55.451 86.218 55.4 86.239 C 55.349 86.259 55.256 86.187 55.205 86.197 C 55.154 86.218 55.123 86.342 55.061 86.352 C 55.03 86.352 54.999 86.342 54.979 86.342 C 54.178 86.342 53.243 86.249 52.277 86.455 C 51.456 86.63 50.644 87.094 49.761 87.444 C 48.96 87.763 48.169 88.155 47.358 88.629 C 46.608 89.072 45.755 89.422 45.036 90.009 C 44.358 90.555 43.742 91.225 43.105 91.915 C 42.602 92.451 41.985 92.997 41.482 93.687 C 41.041 94.294 40.62 94.995 40.209 95.726 C 39.839 96.386 39.747 97.231 39.418 98.003 C 39.12 98.704 38.668 99.384 38.421 100.177 C 38.185 100.908 38.021 101.681 37.836 102.494 C 37.672 103.247 37.569 104.03 37.456 104.854 C 37.353 105.616 37.282 106.409 37.23 107.233 C 37.189 108.006 37.076 108.799 37.086 109.623 C 37.086 110.396 37.189 111.189 37.251 112.013 C 37.282 112.477 36.891 112.961 36.439 112.992 C 36.419 112.992 36.398 113.023 36.378 113.023 C 35.946 113.023 35.566 112.57 35.535 112.126 C 35.474 111.251 35.402 110.396 35.402 109.582 C 35.402 108.706 35.32 107.841 35.371 107.027 C 35.423 106.152 35.669 105.317 35.782 104.503 C 35.905 103.628 36.121 102.814 36.295 102.01 C 36.491 101.145 36.521 100.269 36.768 99.497 C 37.045 98.652 37.323 97.838 37.641 97.086 C 38.001 96.272 38.555 95.593 38.955 94.892 C 39.397 94.109 39.932 93.46 40.404 92.811 C 40.938 92.08 41.452 91.42 41.986 90.844 C 42.582 90.205 43.177 89.597 43.834 89.041 C 44.502 88.485 45.242 88.052 45.961 87.588 C 46.7 87.114 47.326 86.476 48.097 86.105 C 48.888 85.734 49.781 85.528 50.593 85.291 C 49.915 85.126 49.134 84.941 48.364 84.745 C 47.666 84.57 46.916 84.415 46.156 84.22 C 45.437 84.034 44.748 83.684 44.009 83.478 C 43.29 83.282 42.479 83.354 41.749 83.138 C 41.02 82.922 40.383 82.613 39.664 82.386 C 39.715 83.045 39.788 83.828 39.746 84.766 C 39.705 85.538 39.408 86.332 39.233 87.156 C 39.058 87.949 38.945 88.773 38.586 89.505 C 38.227 90.236 37.764 90.926 37.138 91.482 C 36.398 92.131 35.515 92.554 34.652 92.986 C 33.789 93.419 32.906 93.78 31.951 93.986 C 31.026 94.192 30.071 94.418 29.075 94.418 C 27.904 94.418 26.651 94.078 25.398 93.8 C 24.854 94.748 23.693 95.788 23.005 96.334 C 22.419 96.798 21.7 97.354 20.755 97.818 C 20.005 98.189 19.215 98.683 18.27 98.91 C 17.438 99.116 16.523 99.178 15.547 99.178 C 14.88 99.178 14.202 98.982 13.462 98.848 C 12.805 98.734 12.117 98.611 11.418 98.364 C 10.679 98.106 10.053 97.653 9.375 97.117 C 8.769 96.643 7.988 96.273 7.433 95.624 C 6.93 95.026 6.437 94.357 5.975 93.646 C 5.544 92.986 5.245 92.224 4.845 91.482 C 5.122 92.605 5.421 93.728 5.708 94.882 C 5.903 95.665 5.934 96.489 6.129 97.262 C 6.324 98.045 6.601 98.807 6.796 99.579 C 6.991 100.373 7.403 101.094 7.598 101.866 C 7.803 102.66 7.721 103.514 7.916 104.266 C 8.122 105.07 8.594 105.781 8.79 106.533 C 8.995 107.347 9.066 108.16 9.251 108.902 C 9.467 109.726 9.765 110.488 9.95 111.21 C 10.176 112.075 10.217 112.909 10.402 113.579 C 10.689 114.619 11.069 115.371 11.223 115.845 C 11.46 116.566 11.86 117.288 12.323 118.091 C 12.713 118.771 13 119.595 13.555 120.306 C 14.048 120.934 14.777 121.418 15.394 122.057 C 15.948 122.634 16.472 123.303 17.129 123.88 C 17.735 124.416 18.341 125.014 19.03 125.549 C 19.677 126.054 20.324 126.59 21.043 127.084 C 21.721 127.548 22.532 127.836 23.271 128.289 C 23.97 128.712 24.72 129.103 25.48 129.515 C 26.209 129.907 26.856 130.484 27.637 130.854 C 28.387 131.215 29.208 131.431 29.999 131.771 C 30.759 132.101 31.468 132.595 32.279 132.894 C 33.111 133.203 33.995 133.327 34.817 133.564 C 35.669 133.821 36.511 134.027 37.343 134.213 C 38.206 134.398 39.048 134.656 39.9 134.759 C 40.773 134.872 41.647 134.975 42.509 134.996 C 43.382 135.027 44.256 134.882 45.129 134.831 C 46.002 134.779 46.844 134.594 47.707 134.45 C 48.569 134.316 49.453 134.336 50.306 134.11 C 51.148 133.893 51.959 133.574 52.791 133.275 C 53.603 132.977 54.383 132.575 55.174 132.204 C 55.954 131.833 56.735 131.452 57.495 131.009 C 58.245 130.576 59.046 130.278 59.734 129.835 C 60.463 129.371 61.09 128.784 61.747 128.31 C 62.446 127.805 63.175 127.373 63.812 126.858 C 64.48 126.312 65.127 125.755 65.722 125.199 C 66.359 124.612 66.904 123.963 67.469 123.365 C 68.064 122.737 68.495 122.006 69.019 121.367 C 69.564 120.697 70.241 120.161 70.714 119.482 C 71.207 118.771 71.608 118.029 72.029 117.318 C 72.46 116.577 72.789 115.794 73.148 115.052 C 73.518 114.279 73.826 113.496 74.114 112.724 C 74.422 111.92 74.812 111.169 75.049 110.375 C 75.285 109.551 75.429 108.717 75.603 107.903 C 75.778 107.068 75.829 106.224 75.942 105.4 C 76.055 104.555 76.281 103.731 76.343 102.907 C 76.404 102.052 76.394 101.207 76.404 100.383 C 76.404 99.517 76.302 98.673 76.271 97.859 C 76.23 96.983 76.26 96.139 76.189 95.335 C 76.106 94.459 76.034 93.615 75.932 92.821 C 75.819 91.925 75.562 91.111 75.449 90.349 C 75.377 89.803 75.644 89.762 75.572 89.216 C 75.459 88.382 75.028 87.588 74.853 86.733 C 74.679 85.899 74.71 85.013 74.484 84.178 C 74.258 83.354 73.847 82.582 73.58 81.768 C 73.313 80.944 73.251 80.048 72.953 79.265 C 72.645 78.441 72.039 77.761 71.71 76.998 C 71.351 76.185 71.197 75.309 70.827 74.578 C 70.416 73.754 69.903 73.053 69.502 72.373 C 68.999 71.539 68.567 70.777 68.126 70.22 C 68.074 70.179 67.91 70.22 67.879 70.169 C 67.51 69.726 67.294 69.272 66.996 69.066 C 66.657 68.84 65.784 68.747 64.654 68.397 C 63.986 68.191 63.288 67.655 62.405 67.418 C 61.675 67.222 60.874 67.078 60.032 66.872 C 59.282 66.687 58.471 66.573 57.649 66.378 C 56.889 66.192 56.108 65.945 55.297 65.76 C 54.527 65.584 53.705 65.492 52.904 65.317 C 52.123 65.142 51.332 64.936 50.531 64.76 C 49.74 64.585 48.919 64.544 48.117 64.369 C 47.316 64.194 46.556 63.854 45.766 63.689 C 44.964 63.514 44.122 63.545 43.341 63.38 C 42.53 63.215 41.739 62.731 40.959 62.576 C 40.856 62.896 40.876 63.421 40.774 63.751 C 40.507 64.585 40.024 65.378 39.726 66.213 C 39.418 67.078 39.1 67.902 38.709 68.654 C 38.257 69.509 37.805 70.251 37.199 70.797 C 36.532 71.384 35.772 71.899 34.817 71.899 C 34.745 71.899 34.662 71.817 34.59 71.806 C 33.964 71.776 33.173 71.745 32.32 71.601 C 31.612 71.487 30.862 71.281 30.092 71.085 C 29.362 70.9 28.592 70.776 27.873 70.508 C 27.154 70.241 26.538 69.736 25.88 69.375 C 25.192 68.994 24.463 68.562 23.929 68.067 C 24.114 68.881 24.402 69.787 24.802 70.57 C 25.182 71.302 25.757 71.961 26.312 72.651 C 26.825 73.3 27.38 73.949 28.037 74.547 C 28.668 75.125 29.334 75.665 30.03 76.164 C 30.708 76.648 31.396 77.163 32.167 77.596 C 32.896 78.008 33.686 78.348 34.488 78.698 C 35.165 78.997 35.864 79.419 36.665 79.718 C 37.384 79.986 38.216 80.037 38.997 80.305 C 39.736 80.552 40.496 80.82 41.266 81.057 C 42.027 81.284 42.777 81.573 43.547 81.789 C 44.328 82.005 45.098 82.232 45.858 82.427 C 46.649 82.644 47.471 82.705 48.21 82.891 C 49.032 83.097 49.802 83.344 50.521 83.519 M 25.316 61.392 C 24.74 61.907 24.463 62.69 24.196 63.586 C 23.929 64.595 23.908 65.482 24.494 66.295 C 24.976 66.975 25.85 67.377 26.753 67.861 C 27.524 68.284 28.274 68.932 29.188 69.221 C 30.081 69.509 31.037 69.674 31.91 69.839 C 32.916 70.035 33.892 70.055 34.672 70.107 C 35.576 70.148 36.368 69.571 36.994 68.603 C 37.456 67.892 37.774 66.934 38.144 65.955 C 38.473 65.069 38.802 64.142 39.089 63.226 C 39.172 62.947 39.202 62.793 39.285 62.525 C 38.391 62.35 37.61 62.02 36.788 61.855 C 35.874 61.68 34.981 61.701 34.19 61.546 C 33.235 61.361 32.423 60.887 31.684 60.753 C 30.482 60.537 29.547 60.65 29.064 60.588 C 28.489 60.516 27.77 60.269 27.072 60.424 C 26.456 60.558 25.839 60.918 25.316 61.402 Z M 0.131 72.435 L 0.284 72.404 C 0.284 72.425 0.285 73.341 0.624 74.753 C 0.778 75.412 1.189 76.133 1.415 76.988 C 1.599 77.699 1.507 78.544 1.733 79.357 C 1.949 80.089 2.236 80.831 2.483 81.603 C 2.719 82.334 3.048 83.066 3.315 83.818 C 3.623 84.694 3.88 85.549 4.198 86.342 C 4.547 87.207 4.989 87.99 5.348 88.763 C 5.749 89.618 6.129 90.421 6.539 91.153 C 7.012 91.997 7.588 92.667 8.07 93.337 C 8.645 94.14 9.097 94.913 9.683 95.459 C 10.422 96.149 11.244 96.448 11.994 96.705 C 12.98 97.045 13.843 97.55 14.726 97.612 C 15.763 97.694 16.708 97.344 17.561 97.169 C 18.608 96.952 19.595 96.798 20.324 96.417 C 21.176 95.974 21.906 95.438 22.47 94.954 C 23.456 94.109 24.001 93.254 24.145 92.945 C 24.021 92.616 23.385 91.709 22.768 90.514 C 22.378 89.752 22.008 88.866 21.577 88.021 C 21.227 87.341 20.806 86.641 20.426 85.899 C 20.067 85.198 19.748 84.446 19.379 83.715 C 19.009 82.994 18.557 82.304 18.208 81.593 C 17.838 80.851 17.684 80.017 17.345 79.316 C 16.975 78.544 16.647 77.802 16.349 77.112 C 15.979 76.257 15.691 75.505 15.486 74.866 C 15.27 74.196 14.931 73.434 14.705 72.548 C 14.521 71.806 14.377 70.993 14.192 70.158 C 14.027 69.375 13.863 68.572 13.699 67.758 C 13.545 66.954 13.462 66.131 13.319 65.327 C 13.165 64.493 12.98 63.689 12.846 62.927 C 12.692 62.051 12.692 61.206 12.569 60.485 C 12.394 59.424 12.055 58.621 11.973 58.106 L 11.768 58.106 C 11.316 58.106 10.535 58.126 9.334 58.466 C 8.542 58.694 7.763 58.966 7.002 59.28 C 6.324 59.558 5.636 60.022 4.794 60.424 C 3.931 60.846 3.202 61.351 2.616 62.01 C 2.01 62.69 1.466 63.432 1.096 64.287 C 0.747 65.111 0.613 66.038 0.439 66.954 C 0.274 67.851 0.028 68.757 0.007 69.674 C -0.023 70.612 0.048 71.549 0.12 72.425 Z M 24.545 7.464 C 24.514 8.03 24.689 8.875 24.761 9.957 C 24.812 10.688 24.699 11.543 24.782 12.47 C 24.853 13.243 25.161 14.057 25.264 14.942 C 25.346 15.736 25.131 16.601 25.233 17.466 C 25.326 18.27 25.5 19.094 25.603 19.949 C 25.706 20.763 25.901 21.577 26.014 22.421 C 26.117 23.235 26.168 24.08 26.281 24.914 C 26.394 25.738 26.599 26.552 26.712 27.387 C 26.825 28.211 26.918 29.045 27.031 29.88 C 27.144 30.714 27.401 31.528 27.514 32.352 C 27.637 33.186 27.585 34.052 27.698 34.866 C 27.822 35.71 28.14 36.514 28.253 37.317 C 28.376 38.172 28.192 39.048 28.305 39.841 C 28.438 40.706 28.818 41.5 28.941 42.283 C 29.075 43.168 28.982 44.034 29.095 44.796 C 29.239 45.733 29.383 46.568 29.496 47.269 C 29.732 48.783 29.927 49.679 29.938 49.731 C 29.938 49.731 30.112 49.71 30.112 49.731 L 30.03 49.741 L 30.082 49.741 C 30.215 50.606 30.184 50.606 30.297 51.471 C 30.297 51.492 30.349 51.41 30.359 51.441 C 30.513 52.728 30.317 52.759 30.502 54.036 C 30.619 54.895 30.736 55.753 30.852 56.612 C 31.026 57.899 30.749 57.992 31.211 59.208 C 31.868 59.331 32.742 59.404 33.625 59.579 C 34.334 59.713 35.104 59.898 35.946 60.063 C 36.676 60.207 37.456 60.362 38.268 60.526 C 39.017 60.671 39.777 60.897 40.578 61.062 C 40.609 61.062 40.65 61.021 40.691 61.031 C 40.691 61.031 40.681 61.165 40.691 61.175 C 41.503 61.34 42.386 61.299 43.229 61.474 C 44.05 61.639 44.872 61.845 45.714 62.02 C 46.536 62.195 47.357 62.432 48.2 62.607 C 49.032 62.782 49.864 62.978 50.696 63.153 C 51.538 63.339 52.401 63.38 53.222 63.565 C 54.065 63.751 54.886 63.998 55.698 64.183 C 56.55 64.379 57.362 64.667 58.163 64.853 C 59.026 65.059 59.878 65.141 60.669 65.347 C 61.552 65.574 62.333 65.935 63.093 66.151 C 64.017 66.409 64.89 66.481 65.589 66.697 C 66.739 67.068 67.458 67.583 67.838 67.851 C 67.951 67.923 68.239 67.974 68.352 68.077 C 68.516 67.449 68.557 66.563 68.814 65.585 C 68.999 64.863 69.307 64.07 69.533 63.184 C 69.728 62.432 69.738 61.567 69.964 60.712 C 70.159 59.939 70.539 59.177 70.755 58.332 C 70.95 57.549 71.279 56.777 71.495 55.942 C 71.7 55.159 71.793 54.325 72.008 53.501 C 72.214 52.707 72.44 51.904 72.655 51.09 C 72.861 50.297 72.912 49.442 73.118 48.628 C 73.323 47.825 73.703 47.063 73.909 46.249 C 74.114 45.445 74.176 44.6 74.381 43.787 C 74.587 42.983 74.771 42.169 74.977 41.356 C 75.182 40.542 75.49 39.759 75.696 38.955 C 75.901 38.141 75.983 37.307 76.189 36.493 C 76.394 35.679 76.62 34.876 76.816 34.072 C 77.021 33.248 77.401 32.486 77.606 31.682 C 77.812 30.858 77.811 29.993 78.007 29.2 C 78.212 28.376 78.397 27.562 78.592 26.758 C 78.798 25.924 79.178 25.162 79.363 24.369 C 79.568 23.524 79.681 22.699 79.866 21.917 C 80.071 21.062 80.39 20.279 80.564 19.506 C 80.77 18.63 80.924 17.806 81.088 17.065 C 81.293 16.148 81.18 15.262 81.324 14.561 C 81.56 13.418 81.889 12.614 81.941 12.141 C 82.033 11.286 82.002 10.451 81.951 9.648 C 81.9 8.782 81.725 7.968 81.53 7.196 C 81.326 6.393 81.026 5.619 80.636 4.888 C 80.215 4.116 79.784 3.395 79.208 2.859 C 78.571 2.272 77.822 1.921 77.031 1.705 C 76.189 1.479 75.357 1.52 74.525 1.674 C 73.693 1.829 72.922 2.169 72.183 2.591 C 71.423 3.024 70.673 3.466 70.098 4.043 C 69.43 4.703 68.947 5.444 68.639 6.124 C 68.506 6.413 68.331 7.227 67.951 8.391 C 67.746 9.04 67.346 9.75 67.078 10.606 C 66.863 11.306 66.555 12.037 66.308 12.851 C 66.082 13.572 66.041 14.386 65.795 15.179 C 65.569 15.911 65.363 16.673 65.126 17.456 C 64.901 18.198 64.479 18.898 64.243 19.671 C 64.017 20.413 63.699 21.144 63.463 21.917 C 63.237 22.669 63.031 23.441 62.795 24.203 C 62.569 24.955 62.364 25.728 62.127 26.49 C 61.881 27.314 61.542 28.087 61.306 28.87 C 61.049 29.694 61.059 30.57 60.813 31.353 C 60.556 32.177 60.176 32.939 59.94 33.712 C 59.683 34.536 59.478 35.35 59.231 36.122 C 58.974 36.957 58.759 37.76 58.522 38.533 C 58.266 39.367 57.865 40.119 57.629 40.892 C 57.372 41.726 57.403 42.623 57.156 43.385 C 56.889 44.23 56.561 45.002 56.324 45.764 C 56.057 46.619 55.811 47.423 55.574 48.165 C 55.297 49.03 54.845 49.761 54.609 50.493 C 54.321 51.379 54.198 52.224 53.972 52.924 C 53.654 53.872 53.417 54.665 53.181 55.314 C 52.688 56.674 52.257 57.323 52.072 57.529 C 51.908 57.725 52.031 57.858 51.794 57.93 C 51.517 58.023 51.507 58.013 51.219 57.951 C 50.87 57.858 50.675 57.487 50.1 55.819 C 49.895 55.231 49.699 54.459 49.422 53.47 C 49.237 52.79 48.98 52.018 48.754 51.111 C 48.569 50.39 48.21 49.638 48.004 48.762 C 47.83 48.021 47.696 47.217 47.491 46.352 C 47.316 45.6 47.275 44.765 47.08 43.921 C 46.906 43.158 46.669 42.375 46.484 41.53 C 46.31 40.768 46.207 39.944 46.022 39.11 C 45.848 38.337 45.396 37.606 45.211 36.771 C 45.047 35.999 44.882 35.195 44.698 34.361 C 44.533 33.588 44.451 32.764 44.276 31.93 C 44.112 31.147 43.927 30.343 43.752 29.519 C 43.588 28.736 43.578 27.902 43.403 27.078 C 43.239 26.295 42.982 25.512 42.807 24.688 C 42.643 23.905 42.253 23.142 42.078 22.318 C 41.914 21.536 42.016 20.67 41.842 19.846 C 41.677 19.053 41.226 18.311 41.061 17.487 C 40.897 16.694 40.866 15.89 40.712 15.148 C 40.537 14.345 40.291 13.593 40.127 12.862 C 39.952 12.037 39.973 11.234 39.819 10.513 C 39.634 9.658 39.315 8.916 39.171 8.236 C 38.955 7.257 38.719 6.495 38.596 5.949 C 38.401 5.125 38.37 4.342 38.072 3.724 C 37.703 2.962 37.086 2.488 36.593 1.993 C 36.029 1.417 35.484 0.933 34.817 0.644 C 34.108 0.335 33.379 0.108 32.629 0.047 C 31.858 -0.015 31.068 -0.026 30.338 0.078 C 29.671 0.17 28.91 0.634 28.088 1.149 C 27.441 1.551 26.856 2.097 26.312 2.828 C 25.86 3.436 25.274 4.064 24.997 4.94 C 24.761 5.661 24.638 6.506 24.586 7.433 Z" fill="transparent" stroke-width="5" stroke="#FFFFFF" stroke-miterlimit="10"></path></svg>