<svg xmlns="http://www.w3.org/2000/svg" width="111" height="137" fill="none" overflow="visible"><path d="M 111 33.851 C 111 30.511 108.037 27.604 103.122 25.189 C 108.037 22.786 111 19.88 111 16.527 C 111 6.177 82.78 0 55.5 0 C 28.221 0 0 6.177 0 16.527 C 0 19.868 2.963 22.775 7.878 25.189 C 2.964 27.592 0 30.499 0 33.851 C 0 37.204 2.963 40.099 7.878 42.514 C 2.964 44.916 0 47.823 0 51.176 C 0 54.528 2.963 57.423 7.878 59.838 C 2.964 62.241 0 65.148 0 68.5 C 0 71.852 2.963 74.748 7.878 77.162 C 2.964 79.565 0 82.472 0 85.824 C 0 89.177 2.963 92.072 7.878 94.486 C 2.964 96.889 0 99.796 0 103.149 C 0 106.501 2.963 109.396 7.878 111.811 C 2.964 114.214 0 117.121 0 120.473 C 0 130.823 28.221 137 55.5 137 C 82.78 137 111 130.823 111 120.473 C 111 117.132 108.037 114.225 103.122 111.811 C 108.037 109.408 111 106.501 111 103.149 C 111 99.796 108.037 96.901 103.122 94.486 C 108.037 92.084 111 89.177 111 85.824 C 111 82.472 108.037 79.577 103.122 77.162 C 108.037 74.759 111 71.852 111 68.5 C 111 65.148 108.037 62.252 103.122 59.838 C 108.037 57.435 111 54.528 111 51.176 C 111 47.823 108.037 44.928 103.122 42.514 C 108.037 40.111 111 37.204 111 33.851 Z M 2.281 16.539 C 2.281 9.658 23.658 2.297 55.488 2.297 C 87.318 2.297 108.695 9.658 108.695 16.539 C 108.695 19.094 105.744 21.708 100.406 23.994 C 89.717 19.704 72.421 17.324 55.477 17.324 C 38.533 17.324 21.236 19.716 10.547 23.994 C 5.209 21.708 2.257 19.082 2.257 16.539 Z M 97.325 25.189 C 87.977 28.448 73.385 30.78 55.5 30.78 C 37.616 30.78 23.023 28.448 13.675 25.189 C 23.023 21.931 37.616 19.598 55.5 19.598 C 73.385 19.598 87.977 21.931 97.325 25.189 Z M 108.707 120.438 C 108.707 127.318 87.331 134.679 55.5 134.679 C 23.67 134.679 2.293 127.318 2.293 120.438 C 2.293 117.882 5.244 115.269 10.583 112.983 C 21.271 117.273 38.568 119.652 55.512 119.652 C 72.456 119.652 89.752 117.261 100.441 112.983 C 105.779 115.269 108.731 117.894 108.731 120.438 Z M 13.664 111.775 C 23.011 108.517 37.603 106.184 55.488 106.184 C 73.373 106.184 87.966 108.517 97.313 111.775 C 87.966 115.034 73.373 117.367 55.488 117.367 C 37.603 117.367 23.011 115.034 13.664 111.775 Z M 108.707 103.125 C 108.707 105.68 105.756 108.294 100.417 110.592 C 89.729 106.301 72.432 103.922 55.488 103.922 C 38.544 103.922 21.248 106.313 10.559 110.592 C 5.221 108.306 2.27 105.68 2.27 103.125 C 2.27 100.57 5.221 97.956 10.559 95.67 C 21.248 99.96 38.544 102.34 55.488 102.34 C 72.432 102.34 89.729 99.948 100.417 95.67 C 105.756 97.956 108.707 100.582 108.707 103.125 Z M 13.664 94.463 C 23.011 91.204 37.603 88.872 55.488 88.872 C 73.373 88.872 87.966 91.204 97.313 94.463 C 87.966 97.721 73.373 100.054 55.488 100.054 C 37.603 100.054 23.011 97.721 13.664 94.463 Z M 108.707 85.801 C 108.707 88.356 105.756 90.97 100.417 93.256 C 89.729 88.966 72.432 86.586 55.488 86.586 C 38.544 86.586 21.248 88.978 10.559 93.256 C 5.221 90.97 2.27 88.344 2.27 85.801 C 2.27 83.257 5.221 80.632 10.559 78.346 C 21.248 82.636 38.544 85.016 55.488 85.016 C 72.432 85.016 89.729 82.624 100.417 78.346 C 105.756 80.632 108.707 83.257 108.707 85.801 Z M 13.664 77.151 C 23.011 73.892 37.603 71.56 55.488 71.56 C 73.373 71.56 87.966 73.892 97.313 77.151 C 87.966 80.409 73.373 82.741 55.488 82.741 C 37.603 82.741 23.011 80.409 13.664 77.151 Z M 108.707 68.488 C 108.707 71.044 105.756 73.658 100.417 75.943 C 89.729 71.653 72.432 69.274 55.488 69.274 C 38.544 69.274 21.248 71.665 10.559 75.943 C 5.221 73.658 2.27 71.032 2.27 68.488 C 2.27 65.945 5.221 63.319 10.559 61.034 C 21.248 65.324 38.544 67.703 55.488 67.703 C 72.432 67.703 89.729 65.312 100.417 61.034 C 105.756 63.319 108.707 65.945 108.707 68.488 Z M 13.664 59.826 C 23.011 56.568 37.603 54.235 55.488 54.235 C 73.373 54.235 87.966 56.568 97.313 59.826 C 87.966 63.085 73.373 65.417 55.488 65.417 C 37.603 65.417 23.011 63.085 13.664 59.826 Z M 108.707 51.176 C 108.707 53.731 105.756 56.345 100.417 58.631 C 89.729 54.341 72.432 51.961 55.488 51.961 C 38.544 51.961 21.248 54.352 10.559 58.631 C 5.221 56.345 2.27 53.719 2.27 51.176 C 2.27 48.632 5.221 46.007 10.559 43.721 C 21.248 48.011 38.544 50.39 55.488 50.39 C 72.432 50.39 89.729 47.999 100.417 43.721 C 105.756 46.007 108.707 48.632 108.707 51.176 Z M 13.664 42.514 C 23.011 39.255 37.603 36.922 55.488 36.922 C 73.373 36.922 87.966 39.255 97.313 42.514 C 87.966 45.772 73.373 48.105 55.488 48.105 C 37.603 48.105 23.011 45.772 13.664 42.514 Z M 100.417 41.318 C 89.741 37.028 72.432 34.649 55.488 34.649 C 38.544 34.649 21.248 37.04 10.559 41.318 C 5.221 39.032 2.27 36.407 2.27 33.863 C 2.27 31.32 5.221 28.694 10.559 26.408 C 21.248 30.699 38.544 33.078 55.488 33.078 C 72.432 33.078 89.729 30.687 100.417 26.408 C 105.756 28.694 108.707 31.32 108.707 33.863 C 108.707 36.407 105.756 39.032 100.417 41.318 Z" fill="rgb(136, 255, 0)"></path></svg>